<svg width="32" height="32" viewBox="0 0 32 32" fill="none" xmlns="http://www.w3.org/2000/svg">
<rect width="32" height="32" rx="6" fill="#0C1142"/>
<path d="M17.8566 16.0204L22.9111 6.89613C23.0296 6.69246 23.0296 6.4888 22.9111 6.28513C22.7927 6.1222 22.5952 6 22.3978 6H11.9727C11.7753 6 11.5778 6.1222 11.4593 6.28513L6.08885 15.6945C5.97038 15.8982 5.97038 16.1426 6.08885 16.3055L11.4593 25.7149C11.5778 25.9185 11.7753 26 11.9727 26H22.3978C22.5952 26 22.7927 25.8778 22.9111 25.7149C23.0296 25.5112 23.0296 25.3075 22.9111 25.1039L17.8566 16.0204ZM17.1852 14.7984L12.9994 7.222H21.4106L17.1852 14.7984ZM11.9332 7.83299L16.4744 16.0204L11.9332 24.2077L7.27352 16.0204L11.9332 7.83299ZM12.9994 24.778L17.1852 17.2016L21.3711 24.778H12.9994Z" fill="white"/>
</svg>
