<svg width="32" height="32" viewBox="0 0 32 32" fill="none" xmlns="http://www.w3.org/2000/svg">
<mask id="mask0" mask-type="alpha" maskUnits="userSpaceOnUse" x="0" y="0" width="32" height="32">
<path d="M0 6C0 2.68629 2.68629 0 6 0H26C29.3137 0 32 2.68629 32 6V26C32 29.3137 29.3137 32 26 32H6C2.68629 32 0 29.3137 0 26V6Z" fill="#00122C"/>
<path d="M19.4764 18.9313C18.4689 17.1209 18.4668 14.9187 19.4709 13.1063L22.9111 6.89613C23.0296 6.69246 23.0296 6.4888 22.9111 6.28513C22.7927 6.1222 22.5952 6 22.3978 6H11.9727C11.7753 6 11.5778 6.1222 11.4593 6.28513L6.08885 15.6945C5.97038 15.8982 5.97038 16.1426 6.08885 16.3055L11.4593 25.7149C11.5778 25.9185 11.7753 26 11.9727 26H22.3978C22.5952 26 22.7927 25.8778 22.9111 25.7149C23.0296 25.5112 23.0296 25.3075 22.9111 25.1039L19.4764 18.9313ZM19.3575 10.9034C18.4111 12.6003 15.9681 12.5954 15.0285 10.8947V10.8947C14.117 9.24478 15.3104 7.222 17.1954 7.222V7.222C19.0848 7.222 20.2778 9.25324 19.3575 10.9034V10.9034ZM8.40256 14.0366C9.95035 11.317 13.8776 11.3386 15.3954 14.075V14.075C16.0666 15.2851 16.0666 16.7556 15.3954 17.9657V17.9657C13.8776 20.7021 9.95035 20.7237 8.40256 18.0042V18.0042C7.70258 16.7743 7.70258 15.2665 8.40256 14.0366V14.0366ZM17.1852 24.778C15.3048 24.778 14.1143 22.7601 15.0236 21.1142V21.1142C15.9631 19.4137 18.4074 19.4137 19.3469 21.1142V21.1142C20.2562 22.7601 19.0657 24.778 17.1852 24.778V24.778Z" fill="#00122C"/>
</mask>
<g mask="url(#mask0)">
<path fill-rule="evenodd" clip-rule="evenodd" d="M32 0H0V32H32V0ZM22.9111 6.89613L17.8566 16.0204L22.9111 25.1039C23.0296 25.3075 23.0296 25.5112 22.9111 25.7149C22.7927 25.8778 22.5952 26 22.3978 26H11.9727C11.7753 26 11.5778 25.9185 11.4593 25.7149L6.08885 16.3055C5.97038 16.1426 5.97038 15.8982 6.08885 15.6945L11.4593 6.28513C11.5778 6.1222 11.7753 6 11.9727 6H22.3978C22.5952 6 22.7927 6.1222 22.9111 6.28513C23.0296 6.4888 23.0296 6.69246 22.9111 6.89613ZM17.1852 14.7984L12.9994 7.222H21.4106L17.1852 14.7984ZM11.9332 7.83299L16.4744 16.0204L11.9332 24.2077L7.27352 16.0204L11.9332 7.83299ZM12.9994 24.778L17.1852 17.2016L21.3711 24.778H12.9994Z" fill="black"/>
</g>
</svg>
