<svg xmlns="http://www.w3.org/2000/svg" width="482.238" height="482.3" viewBox="0 0 482.238 482.3">
  <path id="link" d="M459.7,233.4l-90.5,90.5a127.953,127.953,0,0,1-181,0c-7.9-7.8-14-16.7-19.4-25.8L210.9,256c2-2,4.5-3.2,6.8-4.5A63.447,63.447,0,0,0,324,278.7l90.5-90.5A63.993,63.993,0,0,0,324,97.7l-32.2,32.2a160.2,160.2,0,0,0-81.6-8.9l68.6-68.6a127.953,127.953,0,0,1,181,0C509.6,102.3,509.6,183.4,459.7,233.4ZM220.3,382.2l-32.2,32.2a63.993,63.993,0,0,1-90.5-90.5l90.5-90.5a63.977,63.977,0,0,1,90.5,0,62.975,62.975,0,0,1,15.8,27.1c2.4-1.4,4.8-2.5,6.8-4.5l42.1-42a126.374,126.374,0,0,0-19.4-25.8,127.953,127.953,0,0,0-181,0L52.4,278.7a127.986,127.986,0,0,0,181,181L302,391.1A161.673,161.673,0,0,1,220.3,382.2Z" transform="translate(-14.9 -14.9)" fill="#b7b8c6"/>
</svg>
