<svg id="search" xmlns="http://www.w3.org/2000/svg" width="511.999" height="511.999" viewBox="0 0 511.999 511.999">
  <g id="Group_1" data-name="Group 1">
    <path id="Path_1" data-name="Path 1" d="M508.874,478.708,360.142,329.976a201.62,201.62,0,0,0,45.191-127.309C405.333,90.917,314.416,0,202.666,0S0,90.917,0,202.667,90.917,405.334,202.667,405.334a201.626,201.626,0,0,0,127.309-45.191L478.708,508.875a10.669,10.669,0,0,0,15.086,0l15.081-15.082A10.667,10.667,0,0,0,508.874,478.708ZM202.667,362.667c-88.229,0-160-71.771-160-160s71.771-160,160-160,160,71.771,160,160S290.9,362.667,202.667,362.667Z" fill="#737373"/>
  </g>
</svg>
