<svg xmlns="http://www.w3.org/2000/svg" xmlns:xlink="http://www.w3.org/1999/xlink" width="225" height="24" viewBox="0 0 225 24">
  <defs>
    <clipPath id="clip-path">
      <rect id="Rectangle_2" data-name="Rectangle 2" width="225" height="24" fill="#c93535"/>
    </clipPath>
  </defs>
  <g id="logo-checkout-api-dark" clip-path="url(#clip-path)">
    <path id="Path_1" data-name="Path 1" d="M135.523,18.814a1.848,1.848,0,1,0-1.816-1.847A1.832,1.832,0,0,0,135.523,18.814Z" fill="#fff"/>
    <path id="Path_2" data-name="Path 2" d="M31.1,18.328a5.313,5.313,0,0,1-2.054-1.458,7.145,7.145,0,0,1-1.815-4.91,8.331,8.331,0,0,1,.43-2.722,5.871,5.871,0,0,1,1.29-2.188,5.953,5.953,0,0,1,2.006-1.458,6.746,6.746,0,0,1,2.675-.535,6.425,6.425,0,0,1,2.245.34,6.924,6.924,0,0,1,1.767.972,4.059,4.059,0,0,1,1.194,1.507,5.451,5.451,0,0,1,.621,1.945H36.114A2.474,2.474,0,0,0,35.3,8.362a2.265,2.265,0,0,0-1.576-.583A2.7,2.7,0,0,0,31.385,8.9a5.108,5.108,0,0,0-.764,3.014,5.21,5.21,0,0,0,.764,3.014,2.536,2.536,0,0,0,2.341,1.118,2.7,2.7,0,0,0,1.72-.535,2.871,2.871,0,0,0,.86-1.7h3.344a5.371,5.371,0,0,1-1.72,3.549,5.41,5.41,0,0,1-1.767,1.069,7.17,7.17,0,0,1-2.341.389A6.194,6.194,0,0,1,31.1,18.328Z" fill="#fff"/>
    <path id="Path_3" data-name="Path 3" d="M45,7.049a5.326,5.326,0,0,1,1.576-1.556,4.211,4.211,0,0,1,2.2-.535,4.336,4.336,0,0,1,1.815.389,4.131,4.131,0,0,1,1.385,1.021,5.516,5.516,0,0,1,.908,1.556,5.285,5.285,0,0,1,.334,1.993v8.556H49.776V10.4a2.566,2.566,0,0,0-.573-1.75,2.137,2.137,0,0,0-1.672-.681,2.4,2.4,0,0,0-1.863.826,3.186,3.186,0,0,0-.764,2.188v7.487H41.464V.146H44.9v6.9Z" fill="#fff"/>
    <path id="Path_4" data-name="Path 4" d="M58.852,18.328a5.874,5.874,0,0,1-2.1-1.458,6.074,6.074,0,0,1-1.29-2.236,8.544,8.544,0,0,1-.43-2.722,7.245,7.245,0,0,1,.478-2.722A8.208,8.208,0,0,1,56.8,7,5.953,5.953,0,0,1,58.8,5.542a6.281,6.281,0,0,1,2.58-.535A5.828,5.828,0,0,1,66.113,7.2a8,8,0,0,1,1.242,2.479,11.317,11.317,0,0,1,.43,3.209H58.422a4.505,4.505,0,0,0,1,2.431,2.927,2.927,0,0,0,2.293.875,2.8,2.8,0,0,0,1.624-.437,2.334,2.334,0,0,0,.86-1.167h3.392a5.341,5.341,0,0,1-.621,1.653A5.4,5.4,0,0,1,65.779,17.6a5.128,5.128,0,0,1-1.768.924,6.608,6.608,0,0,1-2.245.34A7.8,7.8,0,0,1,58.852,18.328Zm.526-9.918a4.255,4.255,0,0,0-.955,2.042h5.732a3.264,3.264,0,0,0-.812-2.042,2.463,2.463,0,0,0-1.911-.778A2.951,2.951,0,0,0,59.378,8.41Z" fill="#fff"/>
    <path id="Path_5" data-name="Path 5" d="M72.9,18.328a5.314,5.314,0,0,1-2.054-1.458,7.145,7.145,0,0,1-1.815-4.91,8.331,8.331,0,0,1,.43-2.722,5.873,5.873,0,0,1,1.29-2.188,5.953,5.953,0,0,1,2.006-1.458,6.746,6.746,0,0,1,2.675-.535,6.425,6.425,0,0,1,2.245.34,6.925,6.925,0,0,1,1.768.972,4.06,4.06,0,0,1,1.194,1.507,5.45,5.45,0,0,1,.621,1.945H77.912A2.474,2.474,0,0,0,77.1,8.362a2.265,2.265,0,0,0-1.576-.583A2.7,2.7,0,0,0,73.183,8.9a5.108,5.108,0,0,0-.764,3.014,5.21,5.21,0,0,0,.764,3.014,2.536,2.536,0,0,0,2.341,1.118,2.7,2.7,0,0,0,1.72-.535,2.871,2.871,0,0,0,.86-1.7h3.3a5.33,5.33,0,0,1-.525,1.945,5.29,5.29,0,0,1-2.962,2.674,7.169,7.169,0,0,1-2.341.389A6.109,6.109,0,0,1,72.9,18.328Z" fill="#fff"/>
    <path id="Path_6" data-name="Path 6" d="M86.7,14.05v4.424H83.31V.146H86.7V10.306l4.586-4.959H95.4l-4.777,5.007,5.35,8.119H91.813l-3.631-5.98Z" fill="#fff"/>
    <path id="Path_7" data-name="Path 7" d="M99.743,18.328a6.516,6.516,0,0,1-2.15-1.458,7.365,7.365,0,0,1-1.385-2.188,7.245,7.245,0,0,1-.478-2.722,7.245,7.245,0,0,1,.478-2.722,6.8,6.8,0,0,1,1.385-2.188,5.664,5.664,0,0,1,2.15-1.458,7.2,7.2,0,0,1,5.446,0,6.519,6.519,0,0,1,2.15,1.458,7.381,7.381,0,0,1,1.385,2.188,7.253,7.253,0,0,1,.478,2.722,7.253,7.253,0,0,1-.478,2.722,6.808,6.808,0,0,1-1.385,2.188,5.67,5.67,0,0,1-2.15,1.458,7.2,7.2,0,0,1-5.446,0Zm5.159-3.306a5.1,5.1,0,0,0,.86-3.111A5.1,5.1,0,0,0,104.9,8.8a2.886,2.886,0,0,0-2.436-1.215A2.771,2.771,0,0,0,100.03,8.8a5.193,5.193,0,0,0-.86,3.111,5.193,5.193,0,0,0,.86,3.111,3.126,3.126,0,0,0,4.872,0Z" fill="#fff"/>
    <path id="Path_8" data-name="Path 8" d="M119.233,16.918h-.1a5.807,5.807,0,0,1-1.481,1.41,4.222,4.222,0,0,1-2.2.486,4.465,4.465,0,0,1-3.344-1.264,5,5,0,0,1-1.146-3.452V5.348h3.392v8.167a2.628,2.628,0,0,0,.525,1.75,2.1,2.1,0,0,0,1.624.632,2.432,2.432,0,0,0,1.911-.826,3.118,3.118,0,0,0,.717-2.139V5.348h3.439V18.474h-3.3V16.918Z" fill="#fff"/>
    <path id="Path_9" data-name="Path 9" d="M125.873,5.348V1.215h3.344V5.348h2.2V7.633h-2.2v6.952a1.248,1.248,0,0,0,.334,1.021,1.412,1.412,0,0,0,.956.292h.668a.8.8,0,0,0,.335-.049v2.625c-.191,0-.335.049-.573.049-.192,0-.43.049-.669.049h-.908a5.418,5.418,0,0,1-1.242-.146,2.834,2.834,0,0,1-1.1-.486,2.67,2.67,0,0,1-.812-.972,3.564,3.564,0,0,1-.334-1.556V7.633h-1.768V5.348Z" fill="#fff"/>
    <path id="Path_10" data-name="Path 10" d="M142.306,18.279a5.428,5.428,0,0,1-1.863-1.458,5.969,5.969,0,0,1-1.147-2.188,9.937,9.937,0,0,1-.382-2.771,10.2,10.2,0,0,1,.382-2.771A7.254,7.254,0,0,1,140.443,6.9a5.426,5.426,0,0,1,1.863-1.458,5.894,5.894,0,0,1,2.532-.535,5.507,5.507,0,0,1,3.534,1.118,5.005,5.005,0,0,1,1.72,3.16h-1.528a3.457,3.457,0,0,0-1.242-2.236,3.842,3.842,0,0,0-2.437-.729,4.164,4.164,0,0,0-1.958.438,3.59,3.59,0,0,0-1.338,1.215,5.1,5.1,0,0,0-.764,1.8,8.087,8.087,0,0,0-.239,2.188,8.066,8.066,0,0,0,.287,2.188,5.588,5.588,0,0,0,.812,1.8,3.587,3.587,0,0,0,1.337,1.215,3.971,3.971,0,0,0,1.911.438,3.775,3.775,0,0,0,2.675-.972,4.181,4.181,0,0,0,1.194-2.577h1.481a5.475,5.475,0,0,1-1.624,3.6,5.144,5.144,0,0,1-3.726,1.313A6.785,6.785,0,0,1,142.306,18.279Z" fill="#fff"/>
    <path id="Path_11" data-name="Path 11" d="M155.06,18.279a5.18,5.18,0,0,1-1.91-1.458,6.892,6.892,0,0,1-1.195-2.188,8.436,8.436,0,0,1-.43-2.771,8.646,8.646,0,0,1,.43-2.771A6.4,6.4,0,0,1,153.15,6.9a5.179,5.179,0,0,1,1.91-1.458,6.262,6.262,0,0,1,5.064,0A5.614,5.614,0,0,1,162.035,6.9a6.909,6.909,0,0,1,1.194,2.188,8.435,8.435,0,0,1,.382,2.771,10.2,10.2,0,0,1-.382,2.771,6.42,6.42,0,0,1-1.194,2.188,5.191,5.191,0,0,1-1.911,1.458,5.9,5.9,0,0,1-2.532.535A6.224,6.224,0,0,1,155.06,18.279Zm4.443-1.215a3.725,3.725,0,0,0,1.385-1.215,4.724,4.724,0,0,0,.812-1.8,8.481,8.481,0,0,0,0-4.375,6.819,6.819,0,0,0-.812-1.8A3.724,3.724,0,0,0,159.5,6.66a4.1,4.1,0,0,0-1.911-.438,3.974,3.974,0,0,0-1.911.438A4.136,4.136,0,0,0,154.3,7.876a5.675,5.675,0,0,0-.86,1.8,8.51,8.51,0,0,0,0,4.375,5.676,5.676,0,0,0,.86,1.8,4.136,4.136,0,0,0,1.385,1.215,4.392,4.392,0,0,0,3.822,0Z" fill="#fff"/>
    <path id="Path_12" data-name="Path 12" d="M167.385,5.2V7.2h.048a5.725,5.725,0,0,1,1.576-1.653A4.08,4.08,0,0,1,171.4,4.91a3.966,3.966,0,0,1,2.15.583,3.439,3.439,0,0,1,1.338,1.8h.047a4.747,4.747,0,0,1,1.72-1.8,4.566,4.566,0,0,1,2.436-.632,3.9,3.9,0,0,1,1.529.292,3.614,3.614,0,0,1,1.242.778,3.582,3.582,0,0,1,.812,1.313,5.169,5.169,0,0,1,.287,1.75v9.48h-1.529V9.188A2.83,2.83,0,0,0,180.665,7a2.767,2.767,0,0,0-1.959-.681,3.856,3.856,0,0,0-1.337.243,3.635,3.635,0,0,0-1.1.729,4.072,4.072,0,0,0-.764,1.167,4.076,4.076,0,0,0-.287,1.556v8.459h-1.576V9.188A2.827,2.827,0,0,0,172.878,7a2.462,2.462,0,0,0-1.863-.681,3.158,3.158,0,0,0-1.337.292,4.609,4.609,0,0,0-1.195.778,3.6,3.6,0,0,0-.812,1.215,3.847,3.847,0,0,0-.286,1.507v8.362h-1.577V5.2Z" fill="#fff"/>
    <path id="Path_13" data-name="Path 13" d="M14.331,11.959,20.446,1.07a.672.672,0,0,0,0-.729A.813.813,0,0,0,19.825,0H7.214a.813.813,0,0,0-.621.34L.1,11.571a.671.671,0,0,0,0,.729l6.5,11.23a.693.693,0,0,0,.621.34H19.825a.813.813,0,0,0,.621-.34.672.672,0,0,0,0-.729ZM13.519,10.5,8.456,1.458H18.631ZM7.166,2.188l5.493,9.772L7.166,21.731,1.529,11.959Zm1.29,20.224,5.064-9.043,5.063,9.043Z" fill="#fff"/>
    <rect id="Rectangle_1" data-name="Rectangle 1" width="31" height="20" rx="2" transform="translate(194 2)" fill="#fff"/>
    <path id="Path_14" data-name="Path 14" d="M203.224,9l1.128,3.708h-2.268Zm-3.972,7h1.824l.588-1.908h3.108L205.36,16h2.028L204.6,7.42h-2.532Zm9.309,0h1.932V12.88h1.092c1.956,0,3.216-.864,3.216-2.676v-.048c0-1.812-1.188-2.736-3.276-2.736h-2.964Zm1.932-4.476V8.9h.984c.924,0,1.452.36,1.452,1.272v.048c0,.852-.5,1.308-1.452,1.308ZM216.12,16h1.956V7.42H216.12Z" fill="#0c1142"/>
  </g>
</svg>
